<mxfile host="app.diagrams.net" agent="Mozilla/5.0 (Macintosh; Intel Mac OS X 10_15_7) AppleWebKit/537.36 (KHTML, like Gecko) Chrome/128.0.0.0 Safari/537.36" version="24.7.10" pages="3">
  <diagram name="PÃ¡gina-1" id="pc84kD7bY43ikklcwbWx">
    <mxGraphModel dx="1114" dy="596" grid="1" gridSize="10" guides="1" tooltips="1" connect="1" arrows="1" fold="1" page="1" pageScale="1" pageWidth="827" pageHeight="1169" math="0" shadow="0">
      <root>
        <mxCell id="0" />
        <mxCell id="1" parent="0" />
        <mxCell id="DGrL9cS7yxQlvSd59Yr0-90" style="edgeStyle=orthogonalEdgeStyle;rounded=0;orthogonalLoop=1;jettySize=auto;html=1;exitX=0.5;exitY=0;exitDx=0;exitDy=0;entryX=0;entryY=0.5;entryDx=0;entryDy=0;endArrow=none;endFill=0;startArrow=ERone;startFill=0;" parent="1" source="6dKZNNlccLt_halMKI7n-35" target="DGrL9cS7yxQlvSd59Yr0-37" edge="1">
          <mxGeometry relative="1" as="geometry" />
        </mxCell>
        <mxCell id="DGrL9cS7yxQlvSd59Yr0-94" style="edgeStyle=none;rounded=0;orthogonalLoop=1;jettySize=auto;html=1;exitX=0;exitY=0;exitDx=0;exitDy=0;entryX=1;entryY=1;entryDx=0;entryDy=0;endArrow=none;endFill=0;" parent="1" source="6dKZNNlccLt_halMKI7n-35" target="DGrL9cS7yxQlvSd59Yr0-91" edge="1">
          <mxGeometry relative="1" as="geometry" />
        </mxCell>
        <mxCell id="DGrL9cS7yxQlvSd59Yr0-95" style="edgeStyle=none;rounded=0;orthogonalLoop=1;jettySize=auto;html=1;exitX=0;exitY=0.5;exitDx=0;exitDy=0;entryX=1;entryY=0.5;entryDx=0;entryDy=0;endArrow=none;endFill=0;" parent="1" source="6dKZNNlccLt_halMKI7n-35" target="DGrL9cS7yxQlvSd59Yr0-92" edge="1">
          <mxGeometry relative="1" as="geometry">
            <mxPoint x="140" y="370" as="targetPoint" />
          </mxGeometry>
        </mxCell>
        <mxCell id="DGrL9cS7yxQlvSd59Yr0-96" style="edgeStyle=none;rounded=0;orthogonalLoop=1;jettySize=auto;html=1;exitX=0.25;exitY=1;exitDx=0;exitDy=0;entryX=0.5;entryY=0;entryDx=0;entryDy=0;startArrow=none;startFill=0;endArrow=none;endFill=0;" parent="1" source="6dKZNNlccLt_halMKI7n-35" target="DGrL9cS7yxQlvSd59Yr0-93" edge="1">
          <mxGeometry relative="1" as="geometry" />
        </mxCell>
        <mxCell id="6dKZNNlccLt_halMKI7n-35" value="Cliente" style="whiteSpace=wrap;html=1;align=center;" parent="1" vertex="1">
          <mxGeometry x="170" y="350" width="80" height="40" as="geometry" />
        </mxCell>
        <mxCell id="DGrL9cS7yxQlvSd59Yr0-106" style="edgeStyle=none;rounded=0;orthogonalLoop=1;jettySize=auto;html=1;exitX=1;exitY=0;exitDx=0;exitDy=0;entryX=0;entryY=0.5;entryDx=0;entryDy=0;endArrow=none;endFill=0;" parent="1" source="6dKZNNlccLt_halMKI7n-37" target="DGrL9cS7yxQlvSd59Yr0-103" edge="1">
          <mxGeometry relative="1" as="geometry" />
        </mxCell>
        <mxCell id="DGrL9cS7yxQlvSd59Yr0-107" style="edgeStyle=none;rounded=0;orthogonalLoop=1;jettySize=auto;html=1;exitX=1;exitY=0.5;exitDx=0;exitDy=0;entryX=0;entryY=0.5;entryDx=0;entryDy=0;endArrow=none;endFill=0;" parent="1" source="6dKZNNlccLt_halMKI7n-37" target="DGrL9cS7yxQlvSd59Yr0-104" edge="1">
          <mxGeometry relative="1" as="geometry" />
        </mxCell>
        <mxCell id="DGrL9cS7yxQlvSd59Yr0-120" style="edgeStyle=none;rounded=0;orthogonalLoop=1;jettySize=auto;html=1;exitX=0.5;exitY=1;exitDx=0;exitDy=0;entryX=0.5;entryY=0;entryDx=0;entryDy=0;endArrow=none;endFill=0;" parent="1" source="6dKZNNlccLt_halMKI7n-37" target="DGrL9cS7yxQlvSd59Yr0-119" edge="1">
          <mxGeometry relative="1" as="geometry" />
        </mxCell>
        <mxCell id="DGrL9cS7yxQlvSd59Yr0-123" style="edgeStyle=orthogonalEdgeStyle;rounded=0;orthogonalLoop=1;jettySize=auto;html=1;exitX=1;exitY=1;exitDx=0;exitDy=0;entryX=0.5;entryY=0;entryDx=0;entryDy=0;endArrow=none;endFill=0;startArrow=ERmany;startFill=0;" parent="1" source="6dKZNNlccLt_halMKI7n-37" target="DGrL9cS7yxQlvSd59Yr0-121" edge="1">
          <mxGeometry relative="1" as="geometry" />
        </mxCell>
        <mxCell id="6dKZNNlccLt_halMKI7n-37" value="Produto" style="whiteSpace=wrap;html=1;align=center;" parent="1" vertex="1">
          <mxGeometry x="910" y="380" width="80" height="40" as="geometry" />
        </mxCell>
        <mxCell id="DGrL9cS7yxQlvSd59Yr0-117" style="edgeStyle=none;rounded=0;orthogonalLoop=1;jettySize=auto;html=1;exitX=0;exitY=0.5;exitDx=0;exitDy=0;entryX=1;entryY=0.5;entryDx=0;entryDy=0;endArrow=none;endFill=0;" parent="1" source="6dKZNNlccLt_halMKI7n-40" target="DGrL9cS7yxQlvSd59Yr0-115" edge="1">
          <mxGeometry relative="1" as="geometry" />
        </mxCell>
        <mxCell id="DGrL9cS7yxQlvSd59Yr0-118" style="edgeStyle=none;rounded=0;orthogonalLoop=1;jettySize=auto;html=1;exitX=0;exitY=1;exitDx=0;exitDy=0;entryX=1;entryY=0.5;entryDx=0;entryDy=0;endArrow=none;endFill=0;" parent="1" source="6dKZNNlccLt_halMKI7n-40" target="DGrL9cS7yxQlvSd59Yr0-116" edge="1">
          <mxGeometry relative="1" as="geometry" />
        </mxCell>
        <mxCell id="6dKZNNlccLt_halMKI7n-40" value="Pagamento" style="whiteSpace=wrap;html=1;align=center;" parent="1" vertex="1">
          <mxGeometry x="475" y="460" width="80" height="40" as="geometry" />
        </mxCell>
        <mxCell id="DGrL9cS7yxQlvSd59Yr0-127" style="edgeStyle=orthogonalEdgeStyle;rounded=0;orthogonalLoop=1;jettySize=auto;html=1;exitX=0.25;exitY=1;exitDx=0;exitDy=0;entryX=1;entryY=0.5;entryDx=0;entryDy=0;endArrow=none;endFill=0;" parent="1" source="6dKZNNlccLt_halMKI7n-42" target="DGrL9cS7yxQlvSd59Yr0-125" edge="1">
          <mxGeometry relative="1" as="geometry" />
        </mxCell>
        <mxCell id="6dKZNNlccLt_halMKI7n-42" value="Categoria" style="whiteSpace=wrap;html=1;align=center;" parent="1" vertex="1">
          <mxGeometry x="1150" y="630" width="80" height="40" as="geometry" />
        </mxCell>
        <mxCell id="DGrL9cS7yxQlvSd59Yr0-1" style="rounded=0;orthogonalLoop=1;jettySize=auto;html=1;exitX=0.626;exitY=0.055;exitDx=0;exitDy=0;entryX=0;entryY=1;entryDx=0;entryDy=0;endArrow=none;endFill=0;exitPerimeter=0;" parent="1" source="DGrL9cS7yxQlvSd59Yr0-5" target="DGrL9cS7yxQlvSd59Yr0-21" edge="1">
          <mxGeometry relative="1" as="geometry" />
        </mxCell>
        <mxCell id="DGrL9cS7yxQlvSd59Yr0-2" style="rounded=0;orthogonalLoop=1;jettySize=auto;html=1;endArrow=none;endFill=0;" parent="1" source="DGrL9cS7yxQlvSd59Yr0-5" target="DGrL9cS7yxQlvSd59Yr0-22" edge="1">
          <mxGeometry relative="1" as="geometry" />
        </mxCell>
        <mxCell id="DGrL9cS7yxQlvSd59Yr0-3" style="rounded=0;orthogonalLoop=1;jettySize=auto;html=1;exitX=1;exitY=0.5;exitDx=0;exitDy=0;endArrow=none;endFill=0;" parent="1" source="DGrL9cS7yxQlvSd59Yr0-5" target="DGrL9cS7yxQlvSd59Yr0-23" edge="1">
          <mxGeometry relative="1" as="geometry" />
        </mxCell>
        <mxCell id="DGrL9cS7yxQlvSd59Yr0-4" style="rounded=0;orthogonalLoop=1;jettySize=auto;html=1;exitX=0.5;exitY=1;exitDx=0;exitDy=0;entryX=0;entryY=0;entryDx=0;entryDy=0;endArrow=none;endFill=0;" parent="1" source="DGrL9cS7yxQlvSd59Yr0-5" target="DGrL9cS7yxQlvSd59Yr0-24" edge="1">
          <mxGeometry relative="1" as="geometry" />
        </mxCell>
        <mxCell id="DGrL9cS7yxQlvSd59Yr0-98" style="edgeStyle=none;rounded=0;orthogonalLoop=1;jettySize=auto;html=1;exitX=1;exitY=0.75;exitDx=0;exitDy=0;endArrow=none;endFill=0;startArrow=ERmany;startFill=0;" parent="1" source="DGrL9cS7yxQlvSd59Yr0-5" target="DGrL9cS7yxQlvSd59Yr0-97" edge="1">
          <mxGeometry relative="1" as="geometry" />
        </mxCell>
        <mxCell id="DGrL9cS7yxQlvSd59Yr0-101" style="edgeStyle=none;rounded=0;orthogonalLoop=1;jettySize=auto;html=1;exitX=0.75;exitY=1;exitDx=0;exitDy=0;entryX=0;entryY=0.5;entryDx=0;entryDy=0;endArrow=none;endFill=0;" parent="1" source="DGrL9cS7yxQlvSd59Yr0-5" target="DGrL9cS7yxQlvSd59Yr0-100" edge="1">
          <mxGeometry relative="1" as="geometry" />
        </mxCell>
        <mxCell id="DGrL9cS7yxQlvSd59Yr0-111" style="edgeStyle=orthogonalEdgeStyle;rounded=0;orthogonalLoop=1;jettySize=auto;html=1;exitX=0;exitY=1;exitDx=0;exitDy=0;entryX=0.5;entryY=0;entryDx=0;entryDy=0;endArrow=none;endFill=0;" parent="1" source="DGrL9cS7yxQlvSd59Yr0-5" target="DGrL9cS7yxQlvSd59Yr0-37" edge="1">
          <mxGeometry relative="1" as="geometry" />
        </mxCell>
        <mxCell id="DGrL9cS7yxQlvSd59Yr0-113" style="edgeStyle=none;rounded=0;orthogonalLoop=1;jettySize=auto;html=1;exitX=0.25;exitY=1;exitDx=0;exitDy=0;entryX=0.5;entryY=0;entryDx=0;entryDy=0;endArrow=none;endFill=0;startArrow=ERone;startFill=0;" parent="1" source="DGrL9cS7yxQlvSd59Yr0-5" target="DGrL9cS7yxQlvSd59Yr0-112" edge="1">
          <mxGeometry relative="1" as="geometry" />
        </mxCell>
        <mxCell id="DGrL9cS7yxQlvSd59Yr0-5" value="Encomenda&lt;span style=&quot;color: rgba(0, 0, 0, 0); font-family: monospace; font-size: 0px; text-align: start; text-wrap: nowrap;&quot;&gt;%3CmxGraphModel%3E%3Croot%3E%3CmxCell%20id%3D%220%22%2F%3E%3CmxCell%20id%3D%221%22%20parent%3D%220%22%2F%3E%3CmxCell%20id%3D%222%22%20value%3D%22Cliente%22%20style%3D%22whiteSpace%3Dwrap%3Bhtml%3D1%3Balign%3Dcenter%3B%22%20vertex%3D%221%22%20parent%3D%221%22%3E%3CmxGeometry%20x%3D%2280%22%20y%3D%2280%22%20width%3D%22160%22%20height%3D%2280%22%20as%3D%22geometry%22%2F%3E%3C%2FmxCell%3E%3C%2Froot%3E%3C%2FmxGraphModel%3E&lt;/span&gt;" style="whiteSpace=wrap;html=1;align=center;" parent="1" vertex="1">
          <mxGeometry x="501.5" y="110" width="80" height="40" as="geometry" />
        </mxCell>
        <mxCell id="DGrL9cS7yxQlvSd59Yr0-35" style="edgeStyle=none;rounded=0;orthogonalLoop=1;jettySize=auto;html=1;exitX=1;exitY=0.5;exitDx=0;exitDy=0;entryX=0;entryY=0.5;entryDx=0;entryDy=0;endArrow=none;endFill=0;startArrow=ERone;startFill=0;" parent="1" source="DGrL9cS7yxQlvSd59Yr0-6" target="DGrL9cS7yxQlvSd59Yr0-34" edge="1">
          <mxGeometry relative="1" as="geometry" />
        </mxCell>
        <mxCell id="DGrL9cS7yxQlvSd59Yr0-6" value="Pizzaria" style="whiteSpace=wrap;html=1;align=center;" parent="1" vertex="1">
          <mxGeometry x="200" y="110" width="80" height="40" as="geometry" />
        </mxCell>
        <mxCell id="DGrL9cS7yxQlvSd59Yr0-15" style="rounded=0;orthogonalLoop=1;jettySize=auto;html=1;exitX=1;exitY=0.5;exitDx=0;exitDy=0;entryX=0.5;entryY=0;entryDx=0;entryDy=0;endArrow=none;endFill=0;" parent="1" source="DGrL9cS7yxQlvSd59Yr0-16" target="DGrL9cS7yxQlvSd59Yr0-6" edge="1">
          <mxGeometry relative="1" as="geometry" />
        </mxCell>
        <mxCell id="DGrL9cS7yxQlvSd59Yr0-16" value="Morada" style="ellipse;whiteSpace=wrap;html=1;align=center;" parent="1" vertex="1">
          <mxGeometry x="80" y="5" width="100" height="40" as="geometry" />
        </mxCell>
        <mxCell id="DGrL9cS7yxQlvSd59Yr0-17" style="rounded=0;orthogonalLoop=1;jettySize=auto;html=1;entryX=0;entryY=0.5;entryDx=0;entryDy=0;endArrow=none;endFill=0;" parent="1" target="DGrL9cS7yxQlvSd59Yr0-6" edge="1">
          <mxGeometry relative="1" as="geometry">
            <mxPoint x="60" y="125" as="sourcePoint" />
          </mxGeometry>
        </mxCell>
        <mxCell id="DGrL9cS7yxQlvSd59Yr0-18" value="Nome" style="ellipse;whiteSpace=wrap;html=1;align=center;" parent="1" vertex="1">
          <mxGeometry x="10" y="105" width="100" height="40" as="geometry" />
        </mxCell>
        <mxCell id="DGrL9cS7yxQlvSd59Yr0-19" style="rounded=0;orthogonalLoop=1;jettySize=auto;html=1;exitX=1;exitY=0.5;exitDx=0;exitDy=0;entryX=0.5;entryY=1;entryDx=0;entryDy=0;endArrow=none;endFill=0;" parent="1" source="DGrL9cS7yxQlvSd59Yr0-20" target="DGrL9cS7yxQlvSd59Yr0-6" edge="1">
          <mxGeometry relative="1" as="geometry" />
        </mxCell>
        <mxCell id="DGrL9cS7yxQlvSd59Yr0-20" value="Telefone" style="ellipse;whiteSpace=wrap;html=1;align=center;" parent="1" vertex="1">
          <mxGeometry x="90" y="200" width="100" height="40" as="geometry" />
        </mxCell>
        <mxCell id="DGrL9cS7yxQlvSd59Yr0-21" value="NÃºmero" style="ellipse;whiteSpace=wrap;html=1;align=center;" parent="1" vertex="1">
          <mxGeometry x="540" y="10" width="100" height="40" as="geometry" />
        </mxCell>
        <mxCell id="DGrL9cS7yxQlvSd59Yr0-22" value="NÃºmero" style="ellipse;whiteSpace=wrap;html=1;align=center;" parent="1" vertex="1">
          <mxGeometry x="620" y="50" width="100" height="40" as="geometry" />
        </mxCell>
        <mxCell id="DGrL9cS7yxQlvSd59Yr0-23" value="Data" style="ellipse;whiteSpace=wrap;html=1;align=center;" parent="1" vertex="1">
          <mxGeometry x="650" y="105" width="100" height="40" as="geometry" />
        </mxCell>
        <mxCell id="DGrL9cS7yxQlvSd59Yr0-24" value="Valor" style="ellipse;whiteSpace=wrap;html=1;align=center;" parent="1" vertex="1">
          <mxGeometry x="538.5" y="210" width="100" height="40" as="geometry" />
        </mxCell>
        <mxCell id="DGrL9cS7yxQlvSd59Yr0-36" style="edgeStyle=none;rounded=0;orthogonalLoop=1;jettySize=auto;html=1;exitX=1;exitY=0.5;exitDx=0;exitDy=0;entryX=0;entryY=0.5;entryDx=0;entryDy=0;endArrow=ERmany;endFill=0;" parent="1" source="DGrL9cS7yxQlvSd59Yr0-34" target="DGrL9cS7yxQlvSd59Yr0-5" edge="1">
          <mxGeometry relative="1" as="geometry">
            <mxPoint x="471.5" y="130" as="sourcePoint" />
          </mxGeometry>
        </mxCell>
        <mxCell id="DGrL9cS7yxQlvSd59Yr0-34" value="Tem" style="shape=rhombus;perimeter=rhombusPerimeter;whiteSpace=wrap;html=1;align=center;fillColor=#d5e8d4;strokeColor=#82b366;" parent="1" vertex="1">
          <mxGeometry x="350" y="100" width="90" height="60" as="geometry" />
        </mxCell>
        <mxCell id="DGrL9cS7yxQlvSd59Yr0-37" value="Ã feita" style="shape=rhombus;perimeter=rhombusPerimeter;whiteSpace=wrap;html=1;align=center;fillColor=#d5e8d4;strokeColor=#82b366;" parent="1" vertex="1">
          <mxGeometry x="340" y="220" width="90" height="60" as="geometry" />
        </mxCell>
        <mxCell id="DGrL9cS7yxQlvSd59Yr0-72" style="rounded=0;orthogonalLoop=1;jettySize=auto;html=1;exitX=1;exitY=0;exitDx=0;exitDy=0;entryX=0;entryY=1;entryDx=0;entryDy=0;endArrow=none;endFill=0;" parent="1" source="DGrL9cS7yxQlvSd59Yr0-75" target="DGrL9cS7yxQlvSd59Yr0-85" edge="1">
          <mxGeometry relative="1" as="geometry" />
        </mxCell>
        <mxCell id="DGrL9cS7yxQlvSd59Yr0-73" style="rounded=0;orthogonalLoop=1;jettySize=auto;html=1;entryX=0;entryY=0.5;entryDx=0;entryDy=0;endArrow=none;endFill=0;" parent="1" source="DGrL9cS7yxQlvSd59Yr0-75" target="DGrL9cS7yxQlvSd59Yr0-86" edge="1">
          <mxGeometry relative="1" as="geometry" />
        </mxCell>
        <mxCell id="DGrL9cS7yxQlvSd59Yr0-74" style="rounded=0;orthogonalLoop=1;jettySize=auto;html=1;exitX=1;exitY=1;exitDx=0;exitDy=0;entryX=0;entryY=0;entryDx=0;entryDy=0;endArrow=none;endFill=0;" parent="1" source="DGrL9cS7yxQlvSd59Yr0-75" target="DGrL9cS7yxQlvSd59Yr0-87" edge="1">
          <mxGeometry relative="1" as="geometry" />
        </mxCell>
        <mxCell id="DGrL9cS7yxQlvSd59Yr0-75" value="Entregador" style="whiteSpace=wrap;html=1;align=center;" parent="1" vertex="1">
          <mxGeometry x="1030" y="105" width="80" height="40" as="geometry" />
        </mxCell>
        <mxCell id="DGrL9cS7yxQlvSd59Yr0-76" style="rounded=0;orthogonalLoop=1;jettySize=auto;html=1;exitX=1;exitY=0;exitDx=0;exitDy=0;strokeColor=default;endArrow=none;endFill=0;" parent="1" source="DGrL9cS7yxQlvSd59Yr0-79" target="DGrL9cS7yxQlvSd59Yr0-80" edge="1">
          <mxGeometry relative="1" as="geometry" />
        </mxCell>
        <mxCell id="DGrL9cS7yxQlvSd59Yr0-77" style="rounded=0;orthogonalLoop=1;jettySize=auto;html=1;endArrow=none;endFill=0;" parent="1" source="DGrL9cS7yxQlvSd59Yr0-79" target="DGrL9cS7yxQlvSd59Yr0-81" edge="1">
          <mxGeometry relative="1" as="geometry" />
        </mxCell>
        <mxCell id="DGrL9cS7yxQlvSd59Yr0-78" style="rounded=0;orthogonalLoop=1;jettySize=auto;html=1;exitX=0.5;exitY=1;exitDx=0;exitDy=0;entryX=0.5;entryY=0;entryDx=0;entryDy=0;endArrow=none;endFill=0;" parent="1" source="DGrL9cS7yxQlvSd59Yr0-79" target="DGrL9cS7yxQlvSd59Yr0-83" edge="1">
          <mxGeometry relative="1" as="geometry" />
        </mxCell>
        <mxCell id="DGrL9cS7yxQlvSd59Yr0-79" value="Produto" style="whiteSpace=wrap;html=1;align=center;" parent="1" vertex="1">
          <mxGeometry x="410" y="690" width="80" height="40" as="geometry" />
        </mxCell>
        <mxCell id="DGrL9cS7yxQlvSd59Yr0-80" value="Nome" style="ellipse;whiteSpace=wrap;html=1;align=center;" parent="1" vertex="1">
          <mxGeometry x="560" y="640" width="100" height="40" as="geometry" />
        </mxCell>
        <mxCell id="DGrL9cS7yxQlvSd59Yr0-81" value="Tipo de massa" style="ellipse;whiteSpace=wrap;html=1;align=center;" parent="1" vertex="1">
          <mxGeometry x="600" y="720" width="100" height="40" as="geometry" />
        </mxCell>
        <mxCell id="DGrL9cS7yxQlvSd59Yr0-82" value="Categiria" style="ellipse;whiteSpace=wrap;html=1;align=center;" parent="1" vertex="1">
          <mxGeometry x="550" y="790" width="100" height="40" as="geometry" />
        </mxCell>
        <mxCell id="DGrL9cS7yxQlvSd59Yr0-83" value="Valor" style="ellipse;whiteSpace=wrap;html=1;align=center;" parent="1" vertex="1">
          <mxGeometry x="450" y="830" width="100" height="40" as="geometry" />
        </mxCell>
        <mxCell id="DGrL9cS7yxQlvSd59Yr0-84" style="rounded=0;orthogonalLoop=1;jettySize=auto;html=1;exitX=1;exitY=1;exitDx=0;exitDy=0;entryX=0.236;entryY=0.107;entryDx=0;entryDy=0;entryPerimeter=0;endArrow=none;endFill=0;" parent="1" source="DGrL9cS7yxQlvSd59Yr0-79" target="DGrL9cS7yxQlvSd59Yr0-82" edge="1">
          <mxGeometry relative="1" as="geometry" />
        </mxCell>
        <mxCell id="DGrL9cS7yxQlvSd59Yr0-85" value="Nome" style="ellipse;whiteSpace=wrap;html=1;align=center;" parent="1" vertex="1">
          <mxGeometry x="1160" y="15" width="100" height="40" as="geometry" />
        </mxCell>
        <mxCell id="DGrL9cS7yxQlvSd59Yr0-86" value="Tipo de transporte" style="ellipse;whiteSpace=wrap;html=1;align=center;" parent="1" vertex="1">
          <mxGeometry x="1200" y="105" width="100" height="40" as="geometry" />
        </mxCell>
        <mxCell id="DGrL9cS7yxQlvSd59Yr0-87" value="Telefone" style="ellipse;whiteSpace=wrap;html=1;align=center;" parent="1" vertex="1">
          <mxGeometry x="1120" y="205" width="100" height="40" as="geometry" />
        </mxCell>
        <mxCell id="DGrL9cS7yxQlvSd59Yr0-91" value="Nome" style="ellipse;whiteSpace=wrap;html=1;align=center;" parent="1" vertex="1">
          <mxGeometry x="70" y="290" width="100" height="40" as="geometry" />
        </mxCell>
        <mxCell id="DGrL9cS7yxQlvSd59Yr0-92" value="Morada" style="ellipse;whiteSpace=wrap;html=1;align=center;" parent="1" vertex="1">
          <mxGeometry x="20" y="360" width="80" height="30" as="geometry" />
        </mxCell>
        <mxCell id="DGrL9cS7yxQlvSd59Yr0-93" value="NIF" style="ellipse;whiteSpace=wrap;html=1;align=center;" parent="1" vertex="1">
          <mxGeometry x="90" y="440" width="100" height="40" as="geometry" />
        </mxCell>
        <mxCell id="DGrL9cS7yxQlvSd59Yr0-99" style="edgeStyle=none;rounded=0;orthogonalLoop=1;jettySize=auto;html=1;exitX=1;exitY=0.5;exitDx=0;exitDy=0;entryX=0;entryY=0.5;entryDx=0;entryDy=0;endArrow=none;endFill=0;" parent="1" source="DGrL9cS7yxQlvSd59Yr0-97" target="DGrL9cS7yxQlvSd59Yr0-75" edge="1">
          <mxGeometry relative="1" as="geometry" />
        </mxCell>
        <mxCell id="DGrL9cS7yxQlvSd59Yr0-97" value="Ã feita" style="shape=rhombus;perimeter=rhombusPerimeter;whiteSpace=wrap;html=1;align=center;fillColor=#d5e8d4;strokeColor=#82b366;" parent="1" vertex="1">
          <mxGeometry x="827" y="160" width="90" height="60" as="geometry" />
        </mxCell>
        <mxCell id="DGrL9cS7yxQlvSd59Yr0-102" style="edgeStyle=orthogonalEdgeStyle;rounded=0;orthogonalLoop=1;jettySize=auto;html=1;exitX=1;exitY=1;exitDx=0;exitDy=0;entryX=0;entryY=0.5;entryDx=0;entryDy=0;endArrow=ERmany;endFill=0;" parent="1" source="DGrL9cS7yxQlvSd59Yr0-100" target="6dKZNNlccLt_halMKI7n-37" edge="1">
          <mxGeometry relative="1" as="geometry" />
        </mxCell>
        <mxCell id="DGrL9cS7yxQlvSd59Yr0-100" value="Ã feita" style="shape=rhombus;perimeter=rhombusPerimeter;whiteSpace=wrap;html=1;align=center;" parent="1" vertex="1">
          <mxGeometry x="770" y="250" width="90" height="60" as="geometry" />
        </mxCell>
        <mxCell id="DGrL9cS7yxQlvSd59Yr0-103" value="Nome" style="ellipse;whiteSpace=wrap;html=1;align=center;" parent="1" vertex="1">
          <mxGeometry x="1080" y="300" width="100" height="40" as="geometry" />
        </mxCell>
        <mxCell id="DGrL9cS7yxQlvSd59Yr0-104" value="Tipo de Massa" style="ellipse;whiteSpace=wrap;html=1;align=center;" parent="1" vertex="1">
          <mxGeometry x="1120" y="390" width="100" height="40" as="geometry" />
        </mxCell>
        <mxCell id="DGrL9cS7yxQlvSd59Yr0-114" style="edgeStyle=none;rounded=0;orthogonalLoop=1;jettySize=auto;html=1;exitX=0.5;exitY=1;exitDx=0;exitDy=0;entryX=0.5;entryY=0;entryDx=0;entryDy=0;endArrow=ERone;endFill=0;" parent="1" source="DGrL9cS7yxQlvSd59Yr0-112" target="6dKZNNlccLt_halMKI7n-40" edge="1">
          <mxGeometry relative="1" as="geometry" />
        </mxCell>
        <mxCell id="DGrL9cS7yxQlvSd59Yr0-112" value="Tem" style="shape=rhombus;perimeter=rhombusPerimeter;whiteSpace=wrap;html=1;align=center;fillColor=#d5e8d4;strokeColor=#82b366;" parent="1" vertex="1">
          <mxGeometry x="470" y="320" width="90" height="60" as="geometry" />
        </mxCell>
        <mxCell id="DGrL9cS7yxQlvSd59Yr0-115" value="Tipo pagamento" style="ellipse;whiteSpace=wrap;html=1;align=center;" parent="1" vertex="1">
          <mxGeometry x="260" y="440" width="100" height="40" as="geometry" />
        </mxCell>
        <mxCell id="DGrL9cS7yxQlvSd59Yr0-116" value="" style="ellipse;whiteSpace=wrap;html=1;align=center;" parent="1" vertex="1">
          <mxGeometry x="260" y="530" width="100" height="40" as="geometry" />
        </mxCell>
        <mxCell id="DGrL9cS7yxQlvSd59Yr0-119" value="Valor" style="ellipse;whiteSpace=wrap;html=1;align=center;" parent="1" vertex="1">
          <mxGeometry x="980" y="510" width="100" height="40" as="geometry" />
        </mxCell>
        <mxCell id="DGrL9cS7yxQlvSd59Yr0-124" style="rounded=0;orthogonalLoop=1;jettySize=auto;html=1;exitX=0.5;exitY=1;exitDx=0;exitDy=0;entryX=0.5;entryY=0;entryDx=0;entryDy=0;endArrow=ERone;endFill=0;" parent="1" source="DGrL9cS7yxQlvSd59Yr0-121" target="6dKZNNlccLt_halMKI7n-42" edge="1">
          <mxGeometry relative="1" as="geometry" />
        </mxCell>
        <mxCell id="DGrL9cS7yxQlvSd59Yr0-121" value="Tem" style="shape=rhombus;perimeter=rhombusPerimeter;whiteSpace=wrap;html=1;align=center;fillColor=#d5e8d4;strokeColor=#82b366;" parent="1" vertex="1">
          <mxGeometry x="1130" y="480" width="120" height="60" as="geometry" />
        </mxCell>
        <mxCell id="DGrL9cS7yxQlvSd59Yr0-125" value="Nome" style="ellipse;whiteSpace=wrap;html=1;align=center;" parent="1" vertex="1">
          <mxGeometry x="980" y="680" width="100" height="40" as="geometry" />
        </mxCell>
        <mxCell id="NQyHktuBV-wYrJ8PyeVK-1" value="Pizzaria" style="shape=table;startSize=30;container=1;collapsible=1;childLayout=tableLayout;fixedRows=1;rowLines=0;fontStyle=1;align=center;resizeLast=1;html=1;" parent="1" vertex="1">
          <mxGeometry x="70" y="930" width="180" height="150" as="geometry" />
        </mxCell>
        <mxCell id="NQyHktuBV-wYrJ8PyeVK-2" value="" style="shape=tableRow;horizontal=0;startSize=0;swimlaneHead=0;swimlaneBody=0;fillColor=none;collapsible=0;dropTarget=0;points=[[0,0.5],[1,0.5]];portConstraint=eastwest;top=0;left=0;right=0;bottom=1;" parent="NQyHktuBV-wYrJ8PyeVK-1" vertex="1">
          <mxGeometry y="30" width="180" height="30" as="geometry" />
        </mxCell>
        <mxCell id="NQyHktuBV-wYrJ8PyeVK-3" value="PK" style="shape=partialRectangle;connectable=0;fillColor=none;top=0;left=0;bottom=0;right=0;fontStyle=1;overflow=hidden;whiteSpace=wrap;html=1;" parent="NQyHktuBV-wYrJ8PyeVK-2" vertex="1">
          <mxGeometry width="30" height="30" as="geometry">
            <mxRectangle width="30" height="30" as="alternateBounds" />
          </mxGeometry>
        </mxCell>
        <mxCell id="NQyHktuBV-wYrJ8PyeVK-4" value="id" style="shape=partialRectangle;connectable=0;fillColor=none;top=0;left=0;bottom=0;right=0;align=left;spacingLeft=6;fontStyle=5;overflow=hidden;whiteSpace=wrap;html=1;" parent="NQyHktuBV-wYrJ8PyeVK-2" vertex="1">
          <mxGeometry x="30" width="150" height="30" as="geometry">
            <mxRectangle width="150" height="30" as="alternateBounds" />
          </mxGeometry>
        </mxCell>
        <mxCell id="NQyHktuBV-wYrJ8PyeVK-5" value="" style="shape=tableRow;horizontal=0;startSize=0;swimlaneHead=0;swimlaneBody=0;fillColor=none;collapsible=0;dropTarget=0;points=[[0,0.5],[1,0.5]];portConstraint=eastwest;top=0;left=0;right=0;bottom=0;" parent="NQyHktuBV-wYrJ8PyeVK-1" vertex="1">
          <mxGeometry y="60" width="180" height="30" as="geometry" />
        </mxCell>
        <mxCell id="NQyHktuBV-wYrJ8PyeVK-6" value="" style="shape=partialRectangle;connectable=0;fillColor=none;top=0;left=0;bottom=0;right=0;editable=1;overflow=hidden;whiteSpace=wrap;html=1;" parent="NQyHktuBV-wYrJ8PyeVK-5" vertex="1">
          <mxGeometry width="30" height="30" as="geometry">
            <mxRectangle width="30" height="30" as="alternateBounds" />
          </mxGeometry>
        </mxCell>
        <mxCell id="NQyHktuBV-wYrJ8PyeVK-7" value="Nome" style="shape=partialRectangle;connectable=0;fillColor=none;top=0;left=0;bottom=0;right=0;align=left;spacingLeft=6;overflow=hidden;whiteSpace=wrap;html=1;" parent="NQyHktuBV-wYrJ8PyeVK-5" vertex="1">
          <mxGeometry x="30" width="150" height="30" as="geometry">
            <mxRectangle width="150" height="30" as="alternateBounds" />
          </mxGeometry>
        </mxCell>
        <mxCell id="NQyHktuBV-wYrJ8PyeVK-8" value="" style="shape=tableRow;horizontal=0;startSize=0;swimlaneHead=0;swimlaneBody=0;fillColor=none;collapsible=0;dropTarget=0;points=[[0,0.5],[1,0.5]];portConstraint=eastwest;top=0;left=0;right=0;bottom=0;" parent="NQyHktuBV-wYrJ8PyeVK-1" vertex="1">
          <mxGeometry y="90" width="180" height="30" as="geometry" />
        </mxCell>
        <mxCell id="NQyHktuBV-wYrJ8PyeVK-9" value="" style="shape=partialRectangle;connectable=0;fillColor=none;top=0;left=0;bottom=0;right=0;editable=1;overflow=hidden;whiteSpace=wrap;html=1;" parent="NQyHktuBV-wYrJ8PyeVK-8" vertex="1">
          <mxGeometry width="30" height="30" as="geometry">
            <mxRectangle width="30" height="30" as="alternateBounds" />
          </mxGeometry>
        </mxCell>
        <mxCell id="NQyHktuBV-wYrJ8PyeVK-10" value="Morada" style="shape=partialRectangle;connectable=0;fillColor=none;top=0;left=0;bottom=0;right=0;align=left;spacingLeft=6;overflow=hidden;whiteSpace=wrap;html=1;" parent="NQyHktuBV-wYrJ8PyeVK-8" vertex="1">
          <mxGeometry x="30" width="150" height="30" as="geometry">
            <mxRectangle width="150" height="30" as="alternateBounds" />
          </mxGeometry>
        </mxCell>
        <mxCell id="NQyHktuBV-wYrJ8PyeVK-11" value="" style="shape=tableRow;horizontal=0;startSize=0;swimlaneHead=0;swimlaneBody=0;fillColor=none;collapsible=0;dropTarget=0;points=[[0,0.5],[1,0.5]];portConstraint=eastwest;top=0;left=0;right=0;bottom=0;" parent="NQyHktuBV-wYrJ8PyeVK-1" vertex="1">
          <mxGeometry y="120" width="180" height="30" as="geometry" />
        </mxCell>
        <mxCell id="NQyHktuBV-wYrJ8PyeVK-12" value="" style="shape=partialRectangle;connectable=0;fillColor=none;top=0;left=0;bottom=0;right=0;editable=1;overflow=hidden;whiteSpace=wrap;html=1;" parent="NQyHktuBV-wYrJ8PyeVK-11" vertex="1">
          <mxGeometry width="30" height="30" as="geometry">
            <mxRectangle width="30" height="30" as="alternateBounds" />
          </mxGeometry>
        </mxCell>
        <mxCell id="NQyHktuBV-wYrJ8PyeVK-13" value="Telefone" style="shape=partialRectangle;connectable=0;fillColor=none;top=0;left=0;bottom=0;right=0;align=left;spacingLeft=6;overflow=hidden;whiteSpace=wrap;html=1;" parent="NQyHktuBV-wYrJ8PyeVK-11" vertex="1">
          <mxGeometry x="30" width="150" height="30" as="geometry">
            <mxRectangle width="150" height="30" as="alternateBounds" />
          </mxGeometry>
        </mxCell>
        <mxCell id="NQyHktuBV-wYrJ8PyeVK-15" value="Pizzaria" style="shape=table;startSize=30;container=1;collapsible=1;childLayout=tableLayout;fixedRows=1;rowLines=0;fontStyle=1;align=center;resizeLast=1;html=1;" parent="1" vertex="1">
          <mxGeometry x="70" y="930" width="180" height="150" as="geometry" />
        </mxCell>
        <mxCell id="NQyHktuBV-wYrJ8PyeVK-16" value="" style="shape=tableRow;horizontal=0;startSize=0;swimlaneHead=0;swimlaneBody=0;fillColor=none;collapsible=0;dropTarget=0;points=[[0,0.5],[1,0.5]];portConstraint=eastwest;top=0;left=0;right=0;bottom=1;" parent="NQyHktuBV-wYrJ8PyeVK-15" vertex="1">
          <mxGeometry y="30" width="180" height="30" as="geometry" />
        </mxCell>
        <mxCell id="NQyHktuBV-wYrJ8PyeVK-17" value="PK" style="shape=partialRectangle;connectable=0;fillColor=none;top=0;left=0;bottom=0;right=0;fontStyle=1;overflow=hidden;whiteSpace=wrap;html=1;" parent="NQyHktuBV-wYrJ8PyeVK-16" vertex="1">
          <mxGeometry width="30" height="30" as="geometry">
            <mxRectangle width="30" height="30" as="alternateBounds" />
          </mxGeometry>
        </mxCell>
        <mxCell id="NQyHktuBV-wYrJ8PyeVK-18" value="id" style="shape=partialRectangle;connectable=0;fillColor=none;top=0;left=0;bottom=0;right=0;align=left;spacingLeft=6;fontStyle=5;overflow=hidden;whiteSpace=wrap;html=1;" parent="NQyHktuBV-wYrJ8PyeVK-16" vertex="1">
          <mxGeometry x="30" width="150" height="30" as="geometry">
            <mxRectangle width="150" height="30" as="alternateBounds" />
          </mxGeometry>
        </mxCell>
        <mxCell id="NQyHktuBV-wYrJ8PyeVK-19" value="" style="shape=tableRow;horizontal=0;startSize=0;swimlaneHead=0;swimlaneBody=0;fillColor=none;collapsible=0;dropTarget=0;points=[[0,0.5],[1,0.5]];portConstraint=eastwest;top=0;left=0;right=0;bottom=0;" parent="NQyHktuBV-wYrJ8PyeVK-15" vertex="1">
          <mxGeometry y="60" width="180" height="30" as="geometry" />
        </mxCell>
        <mxCell id="NQyHktuBV-wYrJ8PyeVK-20" value="" style="shape=partialRectangle;connectable=0;fillColor=none;top=0;left=0;bottom=0;right=0;editable=1;overflow=hidden;whiteSpace=wrap;html=1;" parent="NQyHktuBV-wYrJ8PyeVK-19" vertex="1">
          <mxGeometry width="30" height="30" as="geometry">
            <mxRectangle width="30" height="30" as="alternateBounds" />
          </mxGeometry>
        </mxCell>
        <mxCell id="NQyHktuBV-wYrJ8PyeVK-21" value="Nome" style="shape=partialRectangle;connectable=0;fillColor=none;top=0;left=0;bottom=0;right=0;align=left;spacingLeft=6;overflow=hidden;whiteSpace=wrap;html=1;" parent="NQyHktuBV-wYrJ8PyeVK-19" vertex="1">
          <mxGeometry x="30" width="150" height="30" as="geometry">
            <mxRectangle width="150" height="30" as="alternateBounds" />
          </mxGeometry>
        </mxCell>
        <mxCell id="NQyHktuBV-wYrJ8PyeVK-22" value="" style="shape=tableRow;horizontal=0;startSize=0;swimlaneHead=0;swimlaneBody=0;fillColor=none;collapsible=0;dropTarget=0;points=[[0,0.5],[1,0.5]];portConstraint=eastwest;top=0;left=0;right=0;bottom=0;" parent="NQyHktuBV-wYrJ8PyeVK-15" vertex="1">
          <mxGeometry y="90" width="180" height="30" as="geometry" />
        </mxCell>
        <mxCell id="NQyHktuBV-wYrJ8PyeVK-23" value="" style="shape=partialRectangle;connectable=0;fillColor=none;top=0;left=0;bottom=0;right=0;editable=1;overflow=hidden;whiteSpace=wrap;html=1;" parent="NQyHktuBV-wYrJ8PyeVK-22" vertex="1">
          <mxGeometry width="30" height="30" as="geometry">
            <mxRectangle width="30" height="30" as="alternateBounds" />
          </mxGeometry>
        </mxCell>
        <mxCell id="NQyHktuBV-wYrJ8PyeVK-24" value="Morada" style="shape=partialRectangle;connectable=0;fillColor=none;top=0;left=0;bottom=0;right=0;align=left;spacingLeft=6;overflow=hidden;whiteSpace=wrap;html=1;" parent="NQyHktuBV-wYrJ8PyeVK-22" vertex="1">
          <mxGeometry x="30" width="150" height="30" as="geometry">
            <mxRectangle width="150" height="30" as="alternateBounds" />
          </mxGeometry>
        </mxCell>
        <mxCell id="NQyHktuBV-wYrJ8PyeVK-25" value="" style="shape=tableRow;horizontal=0;startSize=0;swimlaneHead=0;swimlaneBody=0;fillColor=none;collapsible=0;dropTarget=0;points=[[0,0.5],[1,0.5]];portConstraint=eastwest;top=0;left=0;right=0;bottom=0;" parent="NQyHktuBV-wYrJ8PyeVK-15" vertex="1">
          <mxGeometry y="120" width="180" height="30" as="geometry" />
        </mxCell>
        <mxCell id="NQyHktuBV-wYrJ8PyeVK-26" value="" style="shape=partialRectangle;connectable=0;fillColor=none;top=0;left=0;bottom=0;right=0;editable=1;overflow=hidden;whiteSpace=wrap;html=1;" parent="NQyHktuBV-wYrJ8PyeVK-25" vertex="1">
          <mxGeometry width="30" height="30" as="geometry">
            <mxRectangle width="30" height="30" as="alternateBounds" />
          </mxGeometry>
        </mxCell>
        <mxCell id="NQyHktuBV-wYrJ8PyeVK-27" value="Telefone" style="shape=partialRectangle;connectable=0;fillColor=none;top=0;left=0;bottom=0;right=0;align=left;spacingLeft=6;overflow=hidden;whiteSpace=wrap;html=1;" parent="NQyHktuBV-wYrJ8PyeVK-25" vertex="1">
          <mxGeometry x="30" width="150" height="30" as="geometry">
            <mxRectangle width="150" height="30" as="alternateBounds" />
          </mxGeometry>
        </mxCell>
        <mxCell id="uj1usnTQQjPsjggUKcCM-1" value="Encomenda" style="shape=table;startSize=30;container=1;collapsible=1;childLayout=tableLayout;fixedRows=1;rowLines=0;fontStyle=1;align=center;resizeLast=1;html=1;" vertex="1" parent="1">
          <mxGeometry x="330" y="930" width="180" height="150" as="geometry" />
        </mxCell>
        <mxCell id="uj1usnTQQjPsjggUKcCM-2" value="" style="shape=tableRow;horizontal=0;startSize=0;swimlaneHead=0;swimlaneBody=0;fillColor=none;collapsible=0;dropTarget=0;points=[[0,0.5],[1,0.5]];portConstraint=eastwest;top=0;left=0;right=0;bottom=1;" vertex="1" parent="uj1usnTQQjPsjggUKcCM-1">
          <mxGeometry y="30" width="180" height="30" as="geometry" />
        </mxCell>
        <mxCell id="uj1usnTQQjPsjggUKcCM-3" value="PK" style="shape=partialRectangle;connectable=0;fillColor=none;top=0;left=0;bottom=0;right=0;fontStyle=1;overflow=hidden;whiteSpace=wrap;html=1;" vertex="1" parent="uj1usnTQQjPsjggUKcCM-2">
          <mxGeometry width="30" height="30" as="geometry">
            <mxRectangle width="30" height="30" as="alternateBounds" />
          </mxGeometry>
        </mxCell>
        <mxCell id="uj1usnTQQjPsjggUKcCM-4" value="id" style="shape=partialRectangle;connectable=0;fillColor=none;top=0;left=0;bottom=0;right=0;align=left;spacingLeft=6;fontStyle=5;overflow=hidden;whiteSpace=wrap;html=1;" vertex="1" parent="uj1usnTQQjPsjggUKcCM-2">
          <mxGeometry x="30" width="150" height="30" as="geometry">
            <mxRectangle width="150" height="30" as="alternateBounds" />
          </mxGeometry>
        </mxCell>
        <mxCell id="uj1usnTQQjPsjggUKcCM-5" value="" style="shape=tableRow;horizontal=0;startSize=0;swimlaneHead=0;swimlaneBody=0;fillColor=none;collapsible=0;dropTarget=0;points=[[0,0.5],[1,0.5]];portConstraint=eastwest;top=0;left=0;right=0;bottom=0;" vertex="1" parent="uj1usnTQQjPsjggUKcCM-1">
          <mxGeometry y="60" width="180" height="30" as="geometry" />
        </mxCell>
        <mxCell id="uj1usnTQQjPsjggUKcCM-6" value="" style="shape=partialRectangle;connectable=0;fillColor=none;top=0;left=0;bottom=0;right=0;editable=1;overflow=hidden;whiteSpace=wrap;html=1;" vertex="1" parent="uj1usnTQQjPsjggUKcCM-5">
          <mxGeometry width="30" height="30" as="geometry">
            <mxRectangle width="30" height="30" as="alternateBounds" />
          </mxGeometry>
        </mxCell>
        <mxCell id="uj1usnTQQjPsjggUKcCM-7" value="Nome" style="shape=partialRectangle;connectable=0;fillColor=none;top=0;left=0;bottom=0;right=0;align=left;spacingLeft=6;overflow=hidden;whiteSpace=wrap;html=1;" vertex="1" parent="uj1usnTQQjPsjggUKcCM-5">
          <mxGeometry x="30" width="150" height="30" as="geometry">
            <mxRectangle width="150" height="30" as="alternateBounds" />
          </mxGeometry>
        </mxCell>
        <mxCell id="uj1usnTQQjPsjggUKcCM-8" value="" style="shape=tableRow;horizontal=0;startSize=0;swimlaneHead=0;swimlaneBody=0;fillColor=none;collapsible=0;dropTarget=0;points=[[0,0.5],[1,0.5]];portConstraint=eastwest;top=0;left=0;right=0;bottom=0;" vertex="1" parent="uj1usnTQQjPsjggUKcCM-1">
          <mxGeometry y="90" width="180" height="30" as="geometry" />
        </mxCell>
        <mxCell id="uj1usnTQQjPsjggUKcCM-9" value="" style="shape=partialRectangle;connectable=0;fillColor=none;top=0;left=0;bottom=0;right=0;editable=1;overflow=hidden;whiteSpace=wrap;html=1;" vertex="1" parent="uj1usnTQQjPsjggUKcCM-8">
          <mxGeometry width="30" height="30" as="geometry">
            <mxRectangle width="30" height="30" as="alternateBounds" />
          </mxGeometry>
        </mxCell>
        <mxCell id="uj1usnTQQjPsjggUKcCM-10" value="Numero" style="shape=partialRectangle;connectable=0;fillColor=none;top=0;left=0;bottom=0;right=0;align=left;spacingLeft=6;overflow=hidden;whiteSpace=wrap;html=1;" vertex="1" parent="uj1usnTQQjPsjggUKcCM-8">
          <mxGeometry x="30" width="150" height="30" as="geometry">
            <mxRectangle width="150" height="30" as="alternateBounds" />
          </mxGeometry>
        </mxCell>
        <mxCell id="uj1usnTQQjPsjggUKcCM-11" value="" style="shape=tableRow;horizontal=0;startSize=0;swimlaneHead=0;swimlaneBody=0;fillColor=none;collapsible=0;dropTarget=0;points=[[0,0.5],[1,0.5]];portConstraint=eastwest;top=0;left=0;right=0;bottom=0;" vertex="1" parent="uj1usnTQQjPsjggUKcCM-1">
          <mxGeometry y="120" width="180" height="30" as="geometry" />
        </mxCell>
        <mxCell id="uj1usnTQQjPsjggUKcCM-12" value="" style="shape=partialRectangle;connectable=0;fillColor=none;top=0;left=0;bottom=0;right=0;editable=1;overflow=hidden;whiteSpace=wrap;html=1;" vertex="1" parent="uj1usnTQQjPsjggUKcCM-11">
          <mxGeometry width="30" height="30" as="geometry">
            <mxRectangle width="30" height="30" as="alternateBounds" />
          </mxGeometry>
        </mxCell>
        <mxCell id="uj1usnTQQjPsjggUKcCM-13" value="Data" style="shape=partialRectangle;connectable=0;fillColor=none;top=0;left=0;bottom=0;right=0;align=left;spacingLeft=6;overflow=hidden;whiteSpace=wrap;html=1;" vertex="1" parent="uj1usnTQQjPsjggUKcCM-11">
          <mxGeometry x="30" width="150" height="30" as="geometry">
            <mxRectangle width="150" height="30" as="alternateBounds" />
          </mxGeometry>
        </mxCell>
        <mxCell id="uj1usnTQQjPsjggUKcCM-14" value="Entregador" style="shape=table;startSize=30;container=1;collapsible=1;childLayout=tableLayout;fixedRows=1;rowLines=0;fontStyle=1;align=center;resizeLast=1;html=1;" vertex="1" parent="1">
          <mxGeometry x="550" y="930" width="180" height="150" as="geometry" />
        </mxCell>
        <mxCell id="uj1usnTQQjPsjggUKcCM-15" value="" style="shape=tableRow;horizontal=0;startSize=0;swimlaneHead=0;swimlaneBody=0;fillColor=none;collapsible=0;dropTarget=0;points=[[0,0.5],[1,0.5]];portConstraint=eastwest;top=0;left=0;right=0;bottom=1;" vertex="1" parent="uj1usnTQQjPsjggUKcCM-14">
          <mxGeometry y="30" width="180" height="30" as="geometry" />
        </mxCell>
        <mxCell id="uj1usnTQQjPsjggUKcCM-16" value="" style="shape=partialRectangle;connectable=0;fillColor=none;top=0;left=0;bottom=0;right=0;fontStyle=1;overflow=hidden;whiteSpace=wrap;html=1;" vertex="1" parent="uj1usnTQQjPsjggUKcCM-15">
          <mxGeometry width="30" height="30" as="geometry">
            <mxRectangle width="30" height="30" as="alternateBounds" />
          </mxGeometry>
        </mxCell>
        <mxCell id="uj1usnTQQjPsjggUKcCM-17" value="" style="shape=partialRectangle;connectable=0;fillColor=none;top=0;left=0;bottom=0;right=0;align=left;spacingLeft=6;fontStyle=5;overflow=hidden;whiteSpace=wrap;html=1;" vertex="1" parent="uj1usnTQQjPsjggUKcCM-15">
          <mxGeometry x="30" width="150" height="30" as="geometry">
            <mxRectangle width="150" height="30" as="alternateBounds" />
          </mxGeometry>
        </mxCell>
        <mxCell id="uj1usnTQQjPsjggUKcCM-18" value="" style="shape=tableRow;horizontal=0;startSize=0;swimlaneHead=0;swimlaneBody=0;fillColor=none;collapsible=0;dropTarget=0;points=[[0,0.5],[1,0.5]];portConstraint=eastwest;top=0;left=0;right=0;bottom=0;" vertex="1" parent="uj1usnTQQjPsjggUKcCM-14">
          <mxGeometry y="60" width="180" height="30" as="geometry" />
        </mxCell>
        <mxCell id="uj1usnTQQjPsjggUKcCM-19" value="" style="shape=partialRectangle;connectable=0;fillColor=none;top=0;left=0;bottom=0;right=0;editable=1;overflow=hidden;whiteSpace=wrap;html=1;" vertex="1" parent="uj1usnTQQjPsjggUKcCM-18">
          <mxGeometry width="30" height="30" as="geometry">
            <mxRectangle width="30" height="30" as="alternateBounds" />
          </mxGeometry>
        </mxCell>
        <mxCell id="uj1usnTQQjPsjggUKcCM-20" value="Nome" style="shape=partialRectangle;connectable=0;fillColor=none;top=0;left=0;bottom=0;right=0;align=left;spacingLeft=6;overflow=hidden;whiteSpace=wrap;html=1;" vertex="1" parent="uj1usnTQQjPsjggUKcCM-18">
          <mxGeometry x="30" width="150" height="30" as="geometry">
            <mxRectangle width="150" height="30" as="alternateBounds" />
          </mxGeometry>
        </mxCell>
        <mxCell id="uj1usnTQQjPsjggUKcCM-21" value="" style="shape=tableRow;horizontal=0;startSize=0;swimlaneHead=0;swimlaneBody=0;fillColor=none;collapsible=0;dropTarget=0;points=[[0,0.5],[1,0.5]];portConstraint=eastwest;top=0;left=0;right=0;bottom=0;" vertex="1" parent="uj1usnTQQjPsjggUKcCM-14">
          <mxGeometry y="90" width="180" height="30" as="geometry" />
        </mxCell>
        <mxCell id="uj1usnTQQjPsjggUKcCM-22" value="&lt;meta charset=&quot;utf-8&quot;&gt;&lt;span style=&quot;color: rgb(0, 0, 0); font-family: Helvetica; font-size: 12px; font-style: normal; font-variant-ligatures: normal; font-variant-caps: normal; font-weight: 700; letter-spacing: normal; orphans: 2; text-align: center; text-indent: 0px; text-transform: none; widows: 2; word-spacing: 0px; -webkit-text-stroke-width: 0px; white-space: normal; background-color: rgb(251, 251, 251); text-decoration-thickness: initial; text-decoration-style: initial; text-decoration-color: initial; display: inline !important; float: none;&quot;&gt;PK&lt;/span&gt;" style="shape=partialRectangle;connectable=0;fillColor=none;top=0;left=0;bottom=0;right=0;editable=1;overflow=hidden;whiteSpace=wrap;html=1;" vertex="1" parent="uj1usnTQQjPsjggUKcCM-21">
          <mxGeometry width="30" height="30" as="geometry">
            <mxRectangle width="30" height="30" as="alternateBounds" />
          </mxGeometry>
        </mxCell>
        <mxCell id="uj1usnTQQjPsjggUKcCM-23" value="TipoDeTransporte" style="shape=partialRectangle;connectable=0;fillColor=none;top=0;left=0;bottom=0;right=0;align=left;spacingLeft=6;overflow=hidden;whiteSpace=wrap;html=1;" vertex="1" parent="uj1usnTQQjPsjggUKcCM-21">
          <mxGeometry x="30" width="150" height="30" as="geometry">
            <mxRectangle width="150" height="30" as="alternateBounds" />
          </mxGeometry>
        </mxCell>
        <mxCell id="uj1usnTQQjPsjggUKcCM-24" value="" style="shape=tableRow;horizontal=0;startSize=0;swimlaneHead=0;swimlaneBody=0;fillColor=none;collapsible=0;dropTarget=0;points=[[0,0.5],[1,0.5]];portConstraint=eastwest;top=0;left=0;right=0;bottom=0;" vertex="1" parent="uj1usnTQQjPsjggUKcCM-14">
          <mxGeometry y="120" width="180" height="30" as="geometry" />
        </mxCell>
        <mxCell id="uj1usnTQQjPsjggUKcCM-25" value="" style="shape=partialRectangle;connectable=0;fillColor=none;top=0;left=0;bottom=0;right=0;editable=1;overflow=hidden;whiteSpace=wrap;html=1;" vertex="1" parent="uj1usnTQQjPsjggUKcCM-24">
          <mxGeometry width="30" height="30" as="geometry">
            <mxRectangle width="30" height="30" as="alternateBounds" />
          </mxGeometry>
        </mxCell>
        <mxCell id="uj1usnTQQjPsjggUKcCM-26" value="Telefone" style="shape=partialRectangle;connectable=0;fillColor=none;top=0;left=0;bottom=0;right=0;align=left;spacingLeft=6;overflow=hidden;whiteSpace=wrap;html=1;" vertex="1" parent="uj1usnTQQjPsjggUKcCM-24">
          <mxGeometry x="30" width="150" height="30" as="geometry">
            <mxRectangle width="150" height="30" as="alternateBounds" />
          </mxGeometry>
        </mxCell>
      </root>
    </mxGraphModel>
  </diagram>
  <diagram id="vpsftbNWjD8TAs7m8f4I" name="PÃ¡gina-2">
    <mxGraphModel dx="1114" dy="596" grid="1" gridSize="10" guides="1" tooltips="1" connect="1" arrows="1" fold="1" page="1" pageScale="1" pageWidth="827" pageHeight="1169" math="0" shadow="0">
      <root>
        <mxCell id="0" />
        <mxCell id="1" parent="0" />
        <mxCell id="kRm2GPoB9o5X9MM54a14-1" style="edgeStyle=orthogonalEdgeStyle;rounded=0;orthogonalLoop=1;jettySize=auto;html=1;endArrow=none;endFill=0;startArrow=ERmany;startFill=0;" edge="1" parent="1" source="kRm2GPoB9o5X9MM54a14-2" target="kRm2GPoB9o5X9MM54a14-8">
          <mxGeometry relative="1" as="geometry" />
        </mxCell>
        <mxCell id="kRm2GPoB9o5X9MM54a14-2" value="Cliente" style="whiteSpace=wrap;html=1;align=center;" vertex="1" parent="1">
          <mxGeometry x="110" y="90" width="160" height="80" as="geometry" />
        </mxCell>
        <mxCell id="kRm2GPoB9o5X9MM54a14-3" value="Produto" style="whiteSpace=wrap;html=1;align=center;" vertex="1" parent="1">
          <mxGeometry x="110" y="250" width="160" height="80" as="geometry" />
        </mxCell>
        <mxCell id="kRm2GPoB9o5X9MM54a14-4" style="edgeStyle=orthogonalEdgeStyle;rounded=0;orthogonalLoop=1;jettySize=auto;html=1;entryX=0.5;entryY=0;entryDx=0;entryDy=0;endArrow=none;endFill=0;" edge="1" parent="1" source="kRm2GPoB9o5X9MM54a14-6" target="kRm2GPoB9o5X9MM54a14-11">
          <mxGeometry relative="1" as="geometry" />
        </mxCell>
        <mxCell id="kRm2GPoB9o5X9MM54a14-5" value="1" style="edgeLabel;html=1;align=center;verticalAlign=middle;resizable=0;points=[];" vertex="1" connectable="0" parent="kRm2GPoB9o5X9MM54a14-4">
          <mxGeometry x="-0.6784" y="1" relative="1" as="geometry">
            <mxPoint x="9" y="-5" as="offset" />
          </mxGeometry>
        </mxCell>
        <mxCell id="kRm2GPoB9o5X9MM54a14-6" value="Encomenda" style="whiteSpace=wrap;html=1;align=center;" vertex="1" parent="1">
          <mxGeometry x="590" y="90" width="160" height="80" as="geometry" />
        </mxCell>
        <mxCell id="kRm2GPoB9o5X9MM54a14-7" style="edgeStyle=orthogonalEdgeStyle;rounded=0;orthogonalLoop=1;jettySize=auto;html=1;endArrow=none;endFill=0;" edge="1" parent="1" source="kRm2GPoB9o5X9MM54a14-8" target="kRm2GPoB9o5X9MM54a14-6">
          <mxGeometry relative="1" as="geometry" />
        </mxCell>
        <mxCell id="kRm2GPoB9o5X9MM54a14-8" value="Faz" style="shape=rhombus;perimeter=rhombusPerimeter;whiteSpace=wrap;html=1;align=center;" vertex="1" parent="1">
          <mxGeometry x="350" y="100" width="120" height="60" as="geometry" />
        </mxCell>
        <mxCell id="kRm2GPoB9o5X9MM54a14-9" style="edgeStyle=orthogonalEdgeStyle;rounded=0;orthogonalLoop=1;jettySize=auto;html=1;endArrow=none;endFill=0;" edge="1" parent="1" source="kRm2GPoB9o5X9MM54a14-11" target="kRm2GPoB9o5X9MM54a14-3">
          <mxGeometry relative="1" as="geometry" />
        </mxCell>
        <mxCell id="kRm2GPoB9o5X9MM54a14-10" value="N" style="edgeLabel;html=1;align=center;verticalAlign=middle;resizable=0;points=[];" vertex="1" connectable="0" parent="kRm2GPoB9o5X9MM54a14-9">
          <mxGeometry x="0.704" y="2" relative="1" as="geometry">
            <mxPoint x="-41" y="-12" as="offset" />
          </mxGeometry>
        </mxCell>
        <mxCell id="kRm2GPoB9o5X9MM54a14-11" value="Pertence" style="shape=rhombus;perimeter=rhombusPerimeter;whiteSpace=wrap;html=1;align=center;" vertex="1" parent="1">
          <mxGeometry x="610" y="260" width="120" height="60" as="geometry" />
        </mxCell>
      </root>
    </mxGraphModel>
  </diagram>
  <diagram id="FJkF_JCS8TjtXVsrx57l" name="PÃ¡gina-3">
    <mxGraphModel dx="1393" dy="745" grid="1" gridSize="10" guides="1" tooltips="1" connect="1" arrows="1" fold="1" page="1" pageScale="1" pageWidth="827" pageHeight="1169" math="0" shadow="0">
      <root>
        <mxCell id="0" />
        <mxCell id="1" parent="0" />
        <mxCell id="RntLRTeMASc1lglVbpcX-1" value="&lt;b&gt;2. O Banco MilhÃµes e MilhÃµes criou um plano de conta chamado Simplifica, que sÃ³ permite gastar o saldo da conta&lt;br&gt;em terminais de pagamento automÃ¡ticos (TPAs). Cada cliente pode ter apenas uma conta, que pode ser conjunta&lt;br&gt;ou nÃ£o com outro cliente. Cada conta poderÃ¡ ter um ou mais cartÃµes associados a mesma. Ã necessÃ¡rio registar&lt;br&gt;todos os movimentos de cada cartÃ£o, guardando o valor, a data e hora, o tipo do movimento e o TPA associado&lt;br&gt;ao movimento. AlÃ©m disso, alguns dados dos TPAs precisam ser armazenados, como o cÃ³digo de autorizaÃ§Ã£o&lt;br&gt;individual, a empresa a qual pertence e o local geogrÃ¡fico aproximado.&lt;/b&gt;" style="text;whiteSpace=wrap;html=1;" vertex="1" parent="1">
          <mxGeometry x="80" y="20" width="590" height="180" as="geometry" />
        </mxCell>
        <mxCell id="RntLRTeMASc1lglVbpcX-2" value="Banco" style="whiteSpace=wrap;html=1;align=center;" vertex="1" parent="1">
          <mxGeometry x="140" y="240" width="100" height="40" as="geometry" />
        </mxCell>
        <mxCell id="RntLRTeMASc1lglVbpcX-5" style="edgeStyle=orthogonalEdgeStyle;rounded=0;orthogonalLoop=1;jettySize=auto;html=1;exitX=0.5;exitY=0;exitDx=0;exitDy=0;entryX=0.5;entryY=1;entryDx=0;entryDy=0;endArrow=ERone;endFill=0;" edge="1" parent="1" source="RntLRTeMASc1lglVbpcX-3" target="RntLRTeMASc1lglVbpcX-2">
          <mxGeometry relative="1" as="geometry" />
        </mxCell>
        <mxCell id="RntLRTeMASc1lglVbpcX-6" style="edgeStyle=orthogonalEdgeStyle;rounded=0;orthogonalLoop=1;jettySize=auto;html=1;exitX=1;exitY=0.5;exitDx=0;exitDy=0;endArrow=ERmany;endFill=0;" edge="1" parent="1" source="RntLRTeMASc1lglVbpcX-3" target="RntLRTeMASc1lglVbpcX-4">
          <mxGeometry relative="1" as="geometry" />
        </mxCell>
        <mxCell id="RntLRTeMASc1lglVbpcX-3" value="Tem" style="shape=rhombus;perimeter=rhombusPerimeter;whiteSpace=wrap;html=1;align=center;" vertex="1" parent="1">
          <mxGeometry x="130" y="340" width="120" height="60" as="geometry" />
        </mxCell>
        <mxCell id="RntLRTeMASc1lglVbpcX-38" style="edgeStyle=none;rounded=0;orthogonalLoop=1;jettySize=auto;html=1;exitX=1;exitY=0.5;exitDx=0;exitDy=0;endArrow=none;endFill=0;" edge="1" parent="1" source="RntLRTeMASc1lglVbpcX-4" target="RntLRTeMASc1lglVbpcX-36">
          <mxGeometry relative="1" as="geometry" />
        </mxCell>
        <mxCell id="RntLRTeMASc1lglVbpcX-4" value="Conta" style="whiteSpace=wrap;html=1;align=center;" vertex="1" parent="1">
          <mxGeometry x="370" y="350" width="100" height="40" as="geometry" />
        </mxCell>
        <mxCell id="RntLRTeMASc1lglVbpcX-13" style="edgeStyle=orthogonalEdgeStyle;rounded=0;orthogonalLoop=1;jettySize=auto;html=1;exitX=0;exitY=0.5;exitDx=0;exitDy=0;entryX=0.5;entryY=0;entryDx=0;entryDy=0;endArrow=ERmany;endFill=0;" edge="1" parent="1" source="RntLRTeMASc1lglVbpcX-7" target="RntLRTeMASc1lglVbpcX-9">
          <mxGeometry relative="1" as="geometry" />
        </mxCell>
        <mxCell id="RntLRTeMASc1lglVbpcX-14" style="edgeStyle=orthogonalEdgeStyle;rounded=0;orthogonalLoop=1;jettySize=auto;html=1;exitX=1;exitY=0.5;exitDx=0;exitDy=0;entryX=0.25;entryY=1;entryDx=0;entryDy=0;endArrow=ERone;endFill=0;" edge="1" parent="1" source="RntLRTeMASc1lglVbpcX-7" target="RntLRTeMASc1lglVbpcX-4">
          <mxGeometry relative="1" as="geometry" />
        </mxCell>
        <mxCell id="RntLRTeMASc1lglVbpcX-7" value="Faz" style="shape=rhombus;perimeter=rhombusPerimeter;whiteSpace=wrap;html=1;align=center;" vertex="1" parent="1">
          <mxGeometry x="230" y="460" width="120" height="60" as="geometry" />
        </mxCell>
        <mxCell id="RntLRTeMASc1lglVbpcX-15" style="edgeStyle=orthogonalEdgeStyle;rounded=0;orthogonalLoop=1;jettySize=auto;html=1;exitX=0.5;exitY=0;exitDx=0;exitDy=0;entryX=0.75;entryY=1;entryDx=0;entryDy=0;endArrow=ERone;endFill=0;" edge="1" parent="1" source="RntLRTeMASc1lglVbpcX-8" target="RntLRTeMASc1lglVbpcX-4">
          <mxGeometry relative="1" as="geometry" />
        </mxCell>
        <mxCell id="RntLRTeMASc1lglVbpcX-16" style="edgeStyle=orthogonalEdgeStyle;rounded=0;orthogonalLoop=1;jettySize=auto;html=1;exitX=0.5;exitY=1;exitDx=0;exitDy=0;entryX=0.5;entryY=0;entryDx=0;entryDy=0;endArrow=ERmany;endFill=0;" edge="1" parent="1" source="RntLRTeMASc1lglVbpcX-8" target="RntLRTeMASc1lglVbpcX-10">
          <mxGeometry relative="1" as="geometry" />
        </mxCell>
        <mxCell id="RntLRTeMASc1lglVbpcX-8" value="Tem" style="shape=rhombus;perimeter=rhombusPerimeter;whiteSpace=wrap;html=1;align=center;" vertex="1" parent="1">
          <mxGeometry x="460" y="460" width="120" height="60" as="geometry" />
        </mxCell>
        <mxCell id="RntLRTeMASc1lglVbpcX-9" value="Cliente" style="whiteSpace=wrap;html=1;align=center;" vertex="1" parent="1">
          <mxGeometry x="140" y="565" width="100" height="40" as="geometry" />
        </mxCell>
        <mxCell id="RntLRTeMASc1lglVbpcX-20" style="rounded=0;orthogonalLoop=1;jettySize=auto;html=1;exitX=1;exitY=0.25;exitDx=0;exitDy=0;entryX=0;entryY=0.5;entryDx=0;entryDy=0;endArrow=none;endFill=0;" edge="1" parent="1" source="RntLRTeMASc1lglVbpcX-10" target="RntLRTeMASc1lglVbpcX-18">
          <mxGeometry relative="1" as="geometry" />
        </mxCell>
        <mxCell id="RntLRTeMASc1lglVbpcX-21" style="rounded=0;orthogonalLoop=1;jettySize=auto;html=1;exitX=1;exitY=0.75;exitDx=0;exitDy=0;entryX=0;entryY=0.5;entryDx=0;entryDy=0;endArrow=none;endFill=0;" edge="1" parent="1" source="RntLRTeMASc1lglVbpcX-10" target="RntLRTeMASc1lglVbpcX-19">
          <mxGeometry relative="1" as="geometry" />
        </mxCell>
        <mxCell id="RntLRTeMASc1lglVbpcX-10" value="CartÃ£o" style="whiteSpace=wrap;html=1;align=center;" vertex="1" parent="1">
          <mxGeometry x="470" y="585" width="100" height="40" as="geometry" />
        </mxCell>
        <mxCell id="RntLRTeMASc1lglVbpcX-17" style="edgeStyle=orthogonalEdgeStyle;rounded=0;orthogonalLoop=1;jettySize=auto;html=1;exitX=0.5;exitY=0;exitDx=0;exitDy=0;entryX=0.5;entryY=1;entryDx=0;entryDy=0;endArrow=ERmany;endFill=0;" edge="1" parent="1" source="RntLRTeMASc1lglVbpcX-11" target="RntLRTeMASc1lglVbpcX-10">
          <mxGeometry relative="1" as="geometry" />
        </mxCell>
        <mxCell id="RntLRTeMASc1lglVbpcX-22" style="rounded=0;orthogonalLoop=1;jettySize=auto;html=1;exitX=0.5;exitY=1;exitDx=0;exitDy=0;endArrow=ERmany;endFill=0;" edge="1" parent="1" source="RntLRTeMASc1lglVbpcX-11" target="RntLRTeMASc1lglVbpcX-12">
          <mxGeometry relative="1" as="geometry" />
        </mxCell>
        <mxCell id="RntLRTeMASc1lglVbpcX-24" style="edgeStyle=orthogonalEdgeStyle;rounded=0;orthogonalLoop=1;jettySize=auto;html=1;exitX=1;exitY=0.5;exitDx=0;exitDy=0;entryX=0;entryY=0.5;entryDx=0;entryDy=0;endArrow=none;endFill=0;" edge="1" parent="1" source="RntLRTeMASc1lglVbpcX-11" target="RntLRTeMASc1lglVbpcX-23">
          <mxGeometry relative="1" as="geometry" />
        </mxCell>
        <mxCell id="RntLRTeMASc1lglVbpcX-11" value="Faz movimento" style="shape=rhombus;perimeter=rhombusPerimeter;whiteSpace=wrap;html=1;align=center;" vertex="1" parent="1">
          <mxGeometry x="460" y="690" width="120" height="60" as="geometry" />
        </mxCell>
        <mxCell id="RntLRTeMASc1lglVbpcX-29" style="edgeStyle=none;rounded=0;orthogonalLoop=1;jettySize=auto;html=1;exitX=1;exitY=0;exitDx=0;exitDy=0;entryX=0;entryY=0.5;entryDx=0;entryDy=0;endArrow=none;endFill=0;" edge="1" parent="1" source="RntLRTeMASc1lglVbpcX-12" target="RntLRTeMASc1lglVbpcX-25">
          <mxGeometry relative="1" as="geometry" />
        </mxCell>
        <mxCell id="RntLRTeMASc1lglVbpcX-32" style="edgeStyle=none;rounded=0;orthogonalLoop=1;jettySize=auto;html=1;exitX=1;exitY=0.25;exitDx=0;exitDy=0;entryX=0;entryY=0.5;entryDx=0;entryDy=0;endArrow=none;endFill=0;" edge="1" parent="1" source="RntLRTeMASc1lglVbpcX-12" target="RntLRTeMASc1lglVbpcX-26">
          <mxGeometry relative="1" as="geometry" />
        </mxCell>
        <mxCell id="RntLRTeMASc1lglVbpcX-33" style="edgeStyle=none;rounded=0;orthogonalLoop=1;jettySize=auto;html=1;exitX=1;exitY=0.5;exitDx=0;exitDy=0;entryX=0;entryY=0;entryDx=0;entryDy=0;endArrow=none;endFill=0;" edge="1" parent="1" source="RntLRTeMASc1lglVbpcX-12" target="RntLRTeMASc1lglVbpcX-27">
          <mxGeometry relative="1" as="geometry" />
        </mxCell>
        <mxCell id="RntLRTeMASc1lglVbpcX-12" value="TPA*s" style="whiteSpace=wrap;html=1;align=center;" vertex="1" parent="1">
          <mxGeometry x="470" y="830" width="100" height="40" as="geometry" />
        </mxCell>
        <mxCell id="RntLRTeMASc1lglVbpcX-18" value="Attribute" style="ellipse;whiteSpace=wrap;html=1;align=center;" vertex="1" parent="1">
          <mxGeometry x="620" y="545" width="100" height="40" as="geometry" />
        </mxCell>
        <mxCell id="RntLRTeMASc1lglVbpcX-19" value="Data e Hora" style="ellipse;whiteSpace=wrap;html=1;align=center;" vertex="1" parent="1">
          <mxGeometry x="620" y="620" width="100" height="40" as="geometry" />
        </mxCell>
        <mxCell id="RntLRTeMASc1lglVbpcX-23" value="Tipo movimento" style="ellipse;whiteSpace=wrap;html=1;align=center;" vertex="1" parent="1">
          <mxGeometry x="650" y="700" width="100" height="40" as="geometry" />
        </mxCell>
        <mxCell id="RntLRTeMASc1lglVbpcX-25" value="Codigo&amp;nbsp;&lt;div&gt;AutorizaÃ§Ã£o&lt;/div&gt;" style="ellipse;whiteSpace=wrap;html=1;align=center;" vertex="1" parent="1">
          <mxGeometry x="590" y="760" width="100" height="40" as="geometry" />
        </mxCell>
        <mxCell id="RntLRTeMASc1lglVbpcX-26" value="Individual" style="ellipse;whiteSpace=wrap;html=1;align=center;" vertex="1" parent="1">
          <mxGeometry x="620" y="820" width="100" height="40" as="geometry" />
        </mxCell>
        <mxCell id="RntLRTeMASc1lglVbpcX-27" value="Empresa" style="ellipse;whiteSpace=wrap;html=1;align=center;" vertex="1" parent="1">
          <mxGeometry x="610" y="880" width="100" height="40" as="geometry" />
        </mxCell>
        <mxCell id="RntLRTeMASc1lglVbpcX-28" value="" style="ellipse;whiteSpace=wrap;html=1;align=center;" vertex="1" parent="1">
          <mxGeometry x="600" y="930" width="100" height="40" as="geometry" />
        </mxCell>
        <mxCell id="RntLRTeMASc1lglVbpcX-34" style="edgeStyle=none;rounded=0;orthogonalLoop=1;jettySize=auto;html=1;exitX=1;exitY=1;exitDx=0;exitDy=0;entryX=0.006;entryY=0.562;entryDx=0;entryDy=0;entryPerimeter=0;endArrow=none;endFill=0;" edge="1" parent="1" source="RntLRTeMASc1lglVbpcX-12" target="RntLRTeMASc1lglVbpcX-28">
          <mxGeometry relative="1" as="geometry" />
        </mxCell>
        <mxCell id="RntLRTeMASc1lglVbpcX-35" value="Attribute" style="ellipse;whiteSpace=wrap;html=1;align=center;" vertex="1" parent="1">
          <mxGeometry x="460" y="260" width="100" height="40" as="geometry" />
        </mxCell>
        <mxCell id="RntLRTeMASc1lglVbpcX-36" value="Attribute" style="ellipse;whiteSpace=wrap;html=1;align=center;" vertex="1" parent="1">
          <mxGeometry x="530" y="350" width="100" height="40" as="geometry" />
        </mxCell>
        <mxCell id="RntLRTeMASc1lglVbpcX-37" style="edgeStyle=none;rounded=0;orthogonalLoop=1;jettySize=auto;html=1;exitX=0.75;exitY=0;exitDx=0;exitDy=0;entryX=0.418;entryY=1.088;entryDx=0;entryDy=0;entryPerimeter=0;endArrow=none;endFill=0;" edge="1" parent="1" source="RntLRTeMASc1lglVbpcX-4" target="RntLRTeMASc1lglVbpcX-35">
          <mxGeometry relative="1" as="geometry" />
        </mxCell>
      </root>
    </mxGraphModel>
  </diagram>
</mxfile>
